<svg version="1.1" viewBox="0.0 0.0 785.3438320209974 199.13910761154855" fill="none" stroke="none" stroke-linecap="square" stroke-miterlimit="10" xmlns:xlink="http://www.w3.org/1999/xlink" xmlns="http://www.w3.org/2000/svg"><clipPath id="p.0"><path d="m0 0l785.3438 0l0 199.13911l-785.3438 0l0 -199.13911z" clip-rule="nonzero"/></clipPath><g clip-path="url(#p.0)"><path fill="#000000" fill-opacity="0.0" d="m0 0l785.3438 0l0 199.13911l-785.3438 0z" fill-rule="evenodd"/><path fill="#000000" fill-opacity="0.0" d="m8.353154 164.33969l0 0c0 -15.803162 12.811002 -28.614166 28.614174 -28.614166l0 0c7.588951 0 14.867077 3.0146942 20.233276 8.38089c5.3661995 5.366211 8.380894 12.644333 8.380894 20.233276l0 0c0 15.803177 -12.810997 28.614182 -28.61417 28.614182l0 0c-15.803171 0 -28.614174 -12.811005 -28.614174 -28.614182z" fill-rule="evenodd"/><path stroke="#000000" stroke-width="1.0" stroke-linejoin="round" stroke-linecap="butt" d="m8.353154 164.33969l0 0c0 -15.803162 12.811002 -28.614166 28.614174 -28.614166l0 0c7.588951 0 14.867077 3.0146942 20.233276 8.38089c5.3661995 5.366211 8.380894 12.644333 8.380894 20.233276l0 0c0 15.803177 -12.810997 28.614182 -28.61417 28.614182l0 0c-15.803171 0 -28.614174 -12.811005 -28.614174 -28.614182z" fill-rule="evenodd"/><path fill="#000000" fill-opacity="0.0" d="m3.3520286 144.58229l87.433075 0l0 38.771652l-87.433075 0z" fill-rule="evenodd"/><path fill="#000000" d="m15.992654 168.94229l2.109374 -10.15625l-3.749999 0l0.265625 -1.296875l9.015624 0l-0.265625 1.296875l-3.734375 0l-2.109375 10.15625l-1.531249 0zm5.4453115 -3.15625q0 -2.421875 1.4375 -4.015625q1.171875 -1.3125 3.09375 -1.3125q1.5 0 2.40625 0.9375q0.921875 0.9375 0.921875 2.53125q0 1.421875 -0.578125 2.65625q-0.578125 1.234375 -1.640625 1.890625q-1.0625 0.65625 -2.25 0.65625q-0.96875 0 -1.765625 -0.40625q-0.78125 -0.421875 -1.203125 -1.171875q-0.421875 -0.765625 -0.421875 -1.765625zm1.421875 -0.140625q0 1.171875 0.5625 1.78125q0.5625 0.609375 1.421875 0.609375q0.453125 0 0.890625 -0.1875q0.453125 -0.1875 0.828125 -0.5625q0.390625 -0.375 0.65625 -0.84375q0.28125 -0.484375 0.4375 -1.046875q0.25 -0.765625 0.25 -1.484375q0 -1.125 -0.578125 -1.734375q-0.5625 -0.625 -1.421875 -0.625q-0.65625 0 -1.203125 0.3125q-0.546875 0.3125 -1.0 0.921875q-0.4375 0.609375 -0.640625 1.421875q-0.203125 0.8125 -0.203125 1.4375zm7.2421875 3.296875l2.40625 -11.453125l1.40625 0l-1.484375 7.09375l4.125 -3.9375l1.859375 0l-3.53125 3.09375l2.140625 5.203125l-1.546875 0l-1.65625 -4.265625l-1.71875 1.484375l-0.578125 2.78125l-1.421875 0zm14.078125 -2.828125l1.375 0.140625q-0.296875 1.03125 -1.359375 1.953125q-1.0625 0.921875 -2.546875 0.921875q-0.921875 0 -1.6875 -0.421875q-0.765625 -0.4375 -1.171875 -1.25q-0.40625 -0.8125 -0.40625 -1.84375q0 -1.359375 0.625 -2.640625q0.640625 -1.28125 1.640625 -1.890625q1.0 -0.625 2.15625 -0.625q1.484375 0 2.375 0.921875q0.890625 0.921875 0.890625 2.515625q0 0.609375 -0.109375 1.25l-6.109375 0q-0.03125 0.234375 -0.03125 0.4375q0 1.15625 0.53125 1.78125q0.53125 0.609375 1.3125 0.609375q0.71875 0 1.421875 -0.46875q0.703125 -0.484375 1.09375 -1.390625zm-4.109375 -2.046875l4.65625 0q0.015625 -0.21875 0.015625 -0.3125q0 -1.0625 -0.53125 -1.625q-0.53125 -0.578125 -1.375 -0.578125q-0.90625 0 -1.65625 0.625q-0.734375 0.625 -1.109375 1.890625zm6.9140625 4.875l1.734375 -8.296875l1.28125 0l-0.296875 1.4375q0.828125 -0.84375 1.546875 -1.234375q0.734375 -0.390625 1.5 -0.390625q1.0 0 1.578125 0.546875q0.578125 0.546875 0.578125 1.453125q0 0.46875 -0.203125 1.453125l-1.0625 5.03125l-1.40625 0l1.09375 -5.265625q0.171875 -0.765625 0.171875 -1.125q0 -0.421875 -0.296875 -0.671875q-0.28125 -0.265625 -0.8125 -0.265625q-1.09375 0 -1.9375 0.78125q-0.84375 0.78125 -1.25 2.6875l-0.796875 3.859375l-1.421875 0zm12.2265625 0l1.8125 -8.65625q-1.171875 0.921875 -3.296875 1.484375l0.265625 -1.28125q1.046875 -0.421875 2.078125 -1.09375q1.03125 -0.6875 1.546875 -1.203125q0.3125 -0.3125 0.59375 -0.75l0.8125 0l-2.390625 11.5l-1.421875 0z" fill-rule="nonzero"/><path fill="#000000" fill-opacity="0.0" d="m151.06969 164.33969l0 0c0 -15.803162 12.811005 -28.614166 28.614182 -28.614166l0 0c7.5889435 0 14.867065 3.0146942 20.233276 8.38089c5.3661957 5.366211 8.38089 12.644333 8.38089 20.233276l0 0c0 15.803177 -12.811005 28.614182 -28.614166 28.614182l0 0c-15.803177 0 -28.614182 -12.811005 -28.614182 -28.614182z" fill-rule="evenodd"/><path stroke="#000000" stroke-width="1.0" stroke-linejoin="round" stroke-linecap="butt" d="m151.06969 164.33969l0 0c0 -15.803162 12.811005 -28.614166 28.614182 -28.614166l0 0c7.5889435 0 14.867065 3.0146942 20.233276 8.38089c5.3661957 5.366211 8.38089 12.644333 8.38089 20.233276l0 0c0 15.803177 -12.811005 28.614182 -28.614166 28.614182l0 0c-15.803177 0 -28.614182 -12.811005 -28.614182 -28.614182z" fill-rule="evenodd"/><path fill="#000000" fill-opacity="0.0" d="m146.71143 144.58229l87.43306 0l0 38.771652l-87.43306 0z" fill-rule="evenodd"/><path fill="#000000" d="m159.35205 168.94229l2.109375 -10.15625l-3.75 0l0.265625 -1.296875l9.015625 0l-0.265625 1.296875l-3.734375 0l-2.109375 10.15625l-1.53125 0zm5.4453125 -3.15625q0 -2.421875 1.4375 -4.015625q1.171875 -1.3125 3.09375 -1.3125q1.5 0 2.40625 0.9375q0.921875 0.9375 0.921875 2.53125q0 1.421875 -0.578125 2.65625q-0.578125 1.234375 -1.640625 1.890625q-1.0625 0.65625 -2.25 0.65625q-0.96875 0 -1.765625 -0.40625q-0.78125 -0.421875 -1.203125 -1.171875q-0.421875 -0.765625 -0.421875 -1.765625zm1.421875 -0.140625q0 1.171875 0.5625 1.78125q0.5625 0.609375 1.421875 0.609375q0.453125 0 0.890625 -0.1875q0.453125 -0.1875 0.828125 -0.5625q0.390625 -0.375 0.65625 -0.84375q0.28125 -0.484375 0.4375 -1.046875q0.25 -0.765625 0.25 -1.484375q0 -1.125 -0.578125 -1.734375q-0.5625 -0.625 -1.421875 -0.625q-0.65625 0 -1.203125 0.3125q-0.546875 0.3125 -1.0 0.921875q-0.4375 0.609375 -0.640625 1.421875q-0.203125 0.8125 -0.203125 1.4375zm7.2421875 3.296875l2.40625 -11.453125l1.40625 0l-1.484375 7.09375l4.125 -3.9375l1.859375 0l-3.53125 3.09375l2.140625 5.203125l-1.546875 0l-1.65625 -4.265625l-1.71875 1.484375l-0.578125 2.78125l-1.421875 0zm14.078125 -2.828125l1.375 0.140625q-0.296875 1.03125 -1.359375 1.953125q-1.0625 0.921875 -2.546875 0.921875q-0.921875 0 -1.6875 -0.421875q-0.765625 -0.4375 -1.171875 -1.25q-0.40625 -0.8125 -0.40625 -1.84375q0 -1.359375 0.625 -2.640625q0.640625 -1.28125 1.640625 -1.890625q1.0 -0.625 2.15625 -0.625q1.484375 0 2.375 0.921875q0.890625 0.921875 0.890625 2.515625q0 0.609375 -0.109375 1.25l-6.109375 0q-0.03125 0.234375 -0.03125 0.4375q0 1.15625 0.53125 1.78125q0.53125 0.609375 1.3125 0.609375q0.71875 0 1.421875 -0.46875q0.703125 -0.484375 1.09375 -1.390625zm-4.109375 -2.046875l4.65625 0q0.015625 -0.21875 0.015625 -0.3125q0 -1.0625 -0.53125 -1.625q-0.53125 -0.578125 -1.375 -0.578125q-0.90625 0 -1.65625 0.625q-0.734375 0.625 -1.109375 1.890625zm6.9140625 4.875l1.734375 -8.296875l1.28125 0l-0.296875 1.4375q0.828125 -0.84375 1.546875 -1.234375q0.734375 -0.390625 1.5 -0.390625q1.0 0 1.578125 0.546875q0.578125 0.546875 0.578125 1.453125q0 0.46875 -0.203125 1.453125l-1.0625 5.03125l-1.40625 0l1.09375 -5.265625q0.171875 -0.765625 0.171875 -1.125q0 -0.421875 -0.296875 -0.671875q-0.28125 -0.265625 -0.8125 -0.265625q-1.09375 0 -1.9375 0.78125q-0.84375 0.78125 -1.25 2.6875l-0.796875 3.859375l-1.421875 0zm9.3046875 0q0.21875 -1.03125 0.609375 -1.71875q0.390625 -0.6875 1.03125 -1.3125q0.640625 -0.625 2.46875 -2.078125q1.109375 -0.890625 1.515625 -1.3125q0.578125 -0.609375 0.84375 -1.1875q0.1875 -0.40625 0.1875 -0.875q0 -0.78125 -0.5625 -1.328125q-0.5625 -0.5625 -1.375 -0.5625q-0.796875 0 -1.40625 0.5625q-0.59375 0.5625 -0.859375 1.796875l-1.375 -0.203125q0.203125 -1.53125 1.171875 -2.40625q0.984375 -0.875 2.453125 -0.875q0.96875 0 1.765625 0.40625q0.796875 0.40625 1.1875 1.140625q0.40625 0.734375 0.40625 1.515625q0 1.140625 -0.8125 2.1875q-0.5 0.65625 -2.9375 2.59375q-1.046875 0.828125 -1.5625 1.359375q-0.515625 0.53125 -0.765625 1.0l5.125 0l-0.28125 1.296875l-6.828125 0z" fill-rule="nonzero"/><path fill="#000000" fill-opacity="0.0" d="m579.2193 164.33969l0 0c0 -15.803162 12.810974 -28.614166 28.614197 -28.614166l0 0c7.588928 0 14.867065 3.0146942 20.233276 8.38089c5.36615 5.366211 8.380859 12.644333 8.380859 20.233276l0 0c0 15.803177 -12.810974 28.614182 -28.614136 28.614182l0 0c-15.803223 0 -28.614197 -12.811005 -28.614197 -28.614182z" fill-rule="evenodd"/><path stroke="#000000" stroke-width="1.0" stroke-linejoin="round" stroke-linecap="butt" d="m579.2193 164.33969l0 0c0 -15.803162 12.810974 -28.614166 28.614197 -28.614166l0 0c7.588928 0 14.867065 3.0146942 20.233276 8.38089c5.36615 5.366211 8.380859 12.644333 8.380859 20.233276l0 0c0 15.803177 -12.810974 28.614182 -28.614136 28.614182l0 0c-15.803223 0 -28.614197 -12.811005 -28.614197 -28.614182z" fill-rule="evenodd"/><path fill="#000000" fill-opacity="0.0" d="m564.93317 144.58116l109.4173 0l0 38.771652l-109.4173 0z" fill-rule="evenodd"/><path fill="#000000" d="m577.5738 168.94116l2.109375 -10.15625l-3.75 0l0.265625 -1.296875l9.015625 0l-0.265625 1.296875l-3.734375 0l-2.109375 10.15625l-1.53125 0zm5.4453125 -3.15625q0 -2.421875 1.4375 -4.015625q1.171875 -1.3125 3.09375 -1.3125q1.5 0 2.40625 0.9375q0.921875 0.9375 0.921875 2.53125q0 1.421875 -0.578125 2.65625q-0.578125 1.234375 -1.640625 1.890625q-1.0625 0.65625 -2.25 0.65625q-0.96875 0 -1.765625 -0.40625q-0.78125 -0.421875 -1.203125 -1.171875q-0.421875 -0.765625 -0.421875 -1.765625zm1.421875 -0.140625q0 1.171875 0.5625 1.78125q0.5625 0.609375 1.421875 0.609375q0.453125 0 0.890625 -0.1875q0.453125 -0.1875 0.828125 -0.5625q0.390625 -0.375 0.65625 -0.84375q0.28125 -0.484375 0.4375 -1.046875q0.25 -0.765625 0.25 -1.484375q0 -1.125 -0.578125 -1.734375q-0.5625 -0.625 -1.421875 -0.625q-0.65625 0 -1.203125 0.3125q-0.546875 0.3125 -1.0 0.921875q-0.4375 0.609375 -0.640625 1.421875q-0.203125 0.8125 -0.203125 1.4375zm7.2421875 3.296875l2.40625 -11.453125l1.40625 0l-1.484375 7.09375l4.125 -3.9375l1.859375 0l-3.53125 3.09375l2.140625 5.203125l-1.546875 0l-1.65625 -4.265625l-1.71875 1.484375l-0.578125 2.78125l-1.421875 0zm14.078125 -2.828125l1.375 0.140625q-0.296875 1.03125 -1.359375 1.953125q-1.0625 0.921875 -2.546875 0.921875q-0.921875 0 -1.6875 -0.421875q-0.765625 -0.4375 -1.171875 -1.25q-0.40625 -0.8125 -0.40625 -1.84375q0 -1.359375 0.625 -2.640625q0.640625 -1.28125 1.640625 -1.890625q1.0 -0.625 2.15625 -0.625q1.484375 0 2.375 0.921875q0.890625 0.921875 0.890625 2.515625q0 0.609375 -0.109375 1.25l-6.109375 0q-0.03125 0.234375 -0.03125 0.4375q0 1.15625 0.53125 1.78125q0.53125 0.609375 1.3125 0.609375q0.71875 0 1.421875 -0.46875q0.703125 -0.484375 1.09375 -1.390625zm-4.109375 -2.046875l4.65625 0q0.015625 -0.21875 0.015625 -0.3125q0 -1.0625 -0.53125 -1.625q-0.53125 -0.578125 -1.375 -0.578125q-0.90625 0 -1.65625 0.625q-0.734375 0.625 -1.109375 1.890625zm6.9140625 4.875l1.734375 -8.296875l1.28125 0l-0.296875 1.4375q0.828125 -0.84375 1.546875 -1.234375q0.734375 -0.390625 1.5 -0.390625q1.0 0 1.578125 0.546875q0.578125 0.546875 0.578125 1.453125q0 0.46875 -0.203125 1.453125l-1.0625 5.03125l-1.40625 0l1.09375 -5.265625q0.171875 -0.765625 0.171875 -1.125q0 -0.421875 -0.296875 -0.671875q-0.28125 -0.265625 -0.8125 -0.265625q-1.09375 0 -1.9375 0.78125q-0.84375 0.78125 -1.25 2.6875l-0.796875 3.859375l-1.421875 0zm9.1484375 0l2.40625 -11.453125l1.484375 0l1.921875 4.296875q0.890625 1.96875 1.40625 3.3125q0.296875 0.78125 0.6875 2.109375q0.203125 -1.453125 0.53125 -2.984375l1.40625 -6.734375l1.484375 0l-2.390625 11.453125l-1.515625 0l-2.84375 -6.625q-0.75 -1.75 -1.171875 -3.078125q-0.125 1.109375 -0.453125 2.734375l-1.453125 6.96875l-1.5 0zm11.5234375 -3.4375l0.296875 -1.421875l4.3125 0l-0.296875 1.421875l-4.3125 0zm8.4375 3.4375l1.8125 -8.65625q-1.171875 0.921875 -3.296875 1.484375l0.265625 -1.28125q1.046875 -0.421875 2.078125 -1.09375q1.03125 -0.6875 1.546875 -1.203125q0.3125 -0.3125 0.59375 -0.75l0.8125 0l-2.390625 11.5l-1.421875 0z" fill-rule="nonzero"/><path fill="#000000" fill-opacity="0.0" d="m721.93585 164.33969l0 0c0 -15.803162 12.810974 -28.614166 28.614136 -28.614166l0 0c7.5889893 0 14.867065 3.0146942 20.233276 8.38089c5.366211 5.366211 8.38092 12.644333 8.38092 20.233276l0 0c0 15.803177 -12.811035 28.614182 -28.614197 28.614182l0 0c-15.803162 0 -28.614136 -12.811005 -28.614136 -28.614182z" fill-rule="evenodd"/><path stroke="#000000" stroke-width="1.0" stroke-linejoin="round" stroke-linecap="butt" d="m721.93585 164.33969l0 0c0 -15.803162 12.810974 -28.614166 28.614136 -28.614166l0 0c7.5889893 0 14.867065 3.0146942 20.233276 8.38089c5.366211 5.366211 8.38092 12.644333 8.38092 20.233276l0 0c0 15.803177 -12.811035 28.614182 -28.614197 28.614182l0 0c-15.803162 0 -28.614136 -12.811005 -28.614136 -28.614182z" fill-rule="evenodd"/><path fill="#000000" fill-opacity="0.0" d="m716.2919 144.58229l87.433044 0l0 38.771652l-87.433044 0z" fill-rule="evenodd"/><path fill="#000000" d="m728.9325 168.94229l2.109375 -10.15625l-3.75 0l0.265625 -1.296875l9.015625 0l-0.265625 1.296875l-3.734375 0l-2.109375 10.15625l-1.53125 0zm5.4453125 -3.15625q0 -2.421875 1.4375 -4.015625q1.171875 -1.3125 3.09375 -1.3125q1.5 0 2.40625 0.9375q0.921875 0.9375 0.921875 2.53125q0 1.421875 -0.578125 2.65625q-0.578125 1.234375 -1.640625 1.890625q-1.0625 0.65625 -2.25 0.65625q-0.96875 0 -1.765625 -0.40625q-0.78125 -0.421875 -1.203125 -1.171875q-0.421875 -0.765625 -0.421875 -1.765625zm1.421875 -0.140625q0 1.171875 0.5625 1.78125q0.5625 0.609375 1.421875 0.609375q0.453125 0 0.890625 -0.1875q0.453125 -0.1875 0.828125 -0.5625q0.390625 -0.375 0.65625 -0.84375q0.28125 -0.484375 0.4375 -1.046875q0.25 -0.765625 0.25 -1.484375q0 -1.125 -0.578125 -1.734375q-0.5625 -0.625 -1.421875 -0.625q-0.65625 0 -1.203125 0.3125q-0.546875 0.3125 -1.0 0.921875q-0.4375 0.609375 -0.640625 1.421875q-0.203125 0.8125 -0.203125 1.4375zm7.2421875 3.296875l2.40625 -11.453125l1.40625 0l-1.484375 7.09375l4.125 -3.9375l1.859375 0l-3.53125 3.09375l2.140625 5.203125l-1.546875 0l-1.65625 -4.265625l-1.71875 1.484375l-0.578125 2.78125l-1.421875 0zm14.078125 -2.828125l1.375 0.140625q-0.296875 1.03125 -1.359375 1.953125q-1.0625 0.921875 -2.546875 0.921875q-0.921875 0 -1.6875 -0.421875q-0.765625 -0.4375 -1.171875 -1.25q-0.40625 -0.8125 -0.40625 -1.84375q0 -1.359375 0.625 -2.640625q0.640625 -1.28125 1.640625 -1.890625q1.0 -0.625 2.15625 -0.625q1.484375 0 2.375 0.921875q0.890625 0.921875 0.890625 2.515625q0 0.609375 -0.109375 1.25l-6.109375 0q-0.03125 0.234375 -0.03125 0.4375q0 1.15625 0.53125 1.78125q0.53125 0.609375 1.3125 0.609375q0.71875 0 1.421875 -0.46875q0.703125 -0.484375 1.09375 -1.390625zm-4.109375 -2.046875l4.65625 0q0.015625 -0.21875 0.015625 -0.3125q0 -1.0625 -0.53125 -1.625q-0.53125 -0.578125 -1.375 -0.578125q-0.90625 0 -1.65625 0.625q-0.734375 0.625 -1.109375 1.890625zm6.9140625 4.875l1.734375 -8.296875l1.28125 0l-0.296875 1.4375q0.828125 -0.84375 1.546875 -1.234375q0.734375 -0.390625 1.5 -0.390625q1.0 0 1.578125 0.546875q0.578125 0.546875 0.578125 1.453125q0 0.46875 -0.203125 1.453125l-1.0625 5.03125l-1.40625 0l1.09375 -5.265625q0.171875 -0.765625 0.171875 -1.125q0 -0.421875 -0.296875 -0.671875q-0.28125 -0.265625 -0.8125 -0.265625q-1.09375 0 -1.9375 0.78125q-0.84375 0.78125 -1.25 2.6875l-0.796875 3.859375l-1.421875 0zm9.1484375 0l2.40625 -11.453125l1.484375 0l1.921875 4.296875q0.890625 1.96875 1.40625 3.3125q0.296875 0.78125 0.6875 2.109375q0.203125 -1.453125 0.53125 -2.984375l1.40625 -6.734375l1.484375 0l-2.390625 11.453125l-1.515625 0l-2.84375 -6.625q-0.75 -1.75 -1.171875 -3.078125q-0.125 1.109375 -0.453125 2.734375l-1.453125 6.96875l-1.5 0z" fill-rule="nonzero"/><path fill="#000000" fill-opacity="0.0" d="m36.967327 135.72552c0 -12.5 35.677166 -25.007874 71.354324 -25.0c35.67717 0.007873535 71.35434 12.531494 71.35434 25.062988" fill-rule="evenodd"/><path stroke="#000000" stroke-width="1.0" stroke-linejoin="round" stroke-linecap="butt" d="m36.967327 135.72552c0 -12.5 35.677166 -25.007874 71.354324 -25.0c17.838585 0.0039367676 35.67717 3.1368103 49.056107 7.8351364c6.6894684 2.3491669 12.264038 5.089691 16.16623 8.026146c1.9510803 1.4682312 3.484085 2.9854279 4.529312 4.5272064c0.26132202 0.385437 0.49212646 0.77241516 0.69137573 1.1605377l0.091781616 0.18630981" fill-rule="evenodd"/><path fill="#000000" stroke="#000000" stroke-width="1.0" stroke-linecap="butt" d="m178.85646 132.46086l-1.3608704 -0.82302856l1.8308105 2.7312012l0.35308838 -3.2690582z" fill-rule="evenodd"/><path fill="#000000" fill-opacity="0.0" d="m443.69153 116.96576l84.5354 0l0 67.87401l-84.5354 0z" fill-rule="evenodd"/><path fill="#000000" d="m457.3634 164.36575l0 -4.0l4.0 0l0 4.0l-4.0 0zm13.34375 0l0 -4.0l4.0 0l0 4.0l-4.0 0zm13.3125 0l0 -4.0l4.03125 0l0 4.0l-4.03125 0z" fill-rule="nonzero"/><path fill="#000000" fill-opacity="0.0" d="m78.310036 84.233215l87.43307 0l0 38.771652l-87.43307 0z" fill-rule="evenodd"/><path fill="#000000" d="m91.16941 108.593216l1.8125 -8.65625q-1.171875 0.921875 -3.296875 1.484375l0.265625 -1.28125q1.046875 -0.421875 2.078125 -1.09375q1.03125 -0.6875 1.546875 -1.203125q0.3125 -0.3125 0.59375 -0.75l0.8125 0l-2.390625 11.5l-1.421875 0zm5.7890625 -3.4375l0.296875 -1.421875l4.3125 0l-0.296875 1.421875l-4.3125 0zm5.109375 3.4375l1.734375 -8.296875l1.28125 0l-0.296875 1.4375q0.828125 -0.84375 1.546875 -1.234375q0.734375 -0.390625 1.5 -0.390625q1.0 0 1.578125 0.546875q0.578125 0.546875 0.578125 1.453125q0 0.46875 -0.203125 1.453125l-1.0625 5.03125l-1.40625 0l1.09375 -5.265625q0.171875 -0.765625 0.171875 -1.125q0 -0.421875 -0.296875 -0.671875q-0.28125 -0.265625 -0.8125 -0.265625q-1.09375 0 -1.9375 0.78125q-0.84375 0.78125 -1.25 2.6875l-0.796875 3.859375l-1.421875 0zm14.9921875 -2.828125l1.375 0.140625q-0.296875 1.03125 -1.359375 1.953125q-1.0625 0.921875 -2.546875 0.921875q-0.921875 0 -1.6875 -0.421875q-0.765625 -0.4375 -1.171875 -1.25q-0.40625 -0.8125 -0.40625 -1.84375q0 -1.359375 0.625 -2.640625q0.640625 -1.28125 1.640625 -1.890625q1.0 -0.625 2.15625 -0.625q1.484375 0 2.375 0.921875q0.890625 0.921875 0.890625 2.515625q0 0.609375 -0.109375 1.25l-6.109375 0q-0.03125 0.234375 -0.03125 0.4375q0 1.15625 0.53125 1.78125q0.53125 0.609375 1.3125 0.609375q0.71875 0 1.421875 -0.46875q0.703125 -0.484375 1.09375 -1.390625zm-4.109375 -2.046875l4.65625 0q0.015625 -0.21875 0.015625 -0.3125q0 -1.0625 -0.53125 -1.625q-0.53125 -0.578125 -1.375 -0.578125q-0.90625 0 -1.65625 0.625q-0.734375 0.625 -1.109375 1.890625zm6.3515625 4.875l3.625 -4.21875l-2.078125 -4.078125l1.5625 0l0.703125 1.46875q0.390625 0.828125 0.703125 1.59375l2.390625 -3.0625l1.734375 0l-3.484375 4.1875l2.09375 4.109375l-1.5625 0l-0.828125 -1.6875q-0.265625 -0.546875 -0.609375 -1.34375l-2.46875 3.03125l-1.78125 0zm11.874992 -1.15625l-0.234375 1.171875q-0.515625 0.125 -0.984375 0.125q-0.84375 0 -1.34375 -0.421875q-0.375 -0.3125 -0.375 -0.84375q0 -0.28125 0.203125 -1.265625l1.0 -4.8125l-1.109375 0l0.21875 -1.09375l1.125 0l0.421875 -2.046875l1.625 -0.96875l-0.640625 3.015625l1.390625 0l-0.234375 1.09375l-1.375 0l-0.96875 4.578125q-0.171875 0.875 -0.171875 1.046875q0 0.25 0.140625 0.390625q0.140625 0.125 0.46875 0.125q0.46875 0 0.84375 -0.09375z" fill-rule="nonzero"/><path fill="#000000" fill-opacity="0.0" d="m319.63138 164.33969l0 0c0 -15.803162 12.811005 -28.614166 28.614166 -28.614166l0 0c7.5889587 0 14.867065 3.0146942 20.233276 8.38089c5.366211 5.366211 8.38089 12.644333 8.38089 20.233276l0 0c0 15.803177 -12.811005 28.614182 -28.614166 28.614182l0 0c-15.803162 0 -28.614166 -12.811005 -28.614166 -28.614182z" fill-rule="evenodd"/><path stroke="#000000" stroke-width="1.0" stroke-linejoin="round" stroke-linecap="butt" d="m319.63138 164.33969l0 0c0 -15.803162 12.811005 -28.614166 28.614166 -28.614166l0 0c7.5889587 0 14.867065 3.0146942 20.233276 8.38089c5.366211 5.366211 8.38089 12.644333 8.38089 20.233276l0 0c0 15.803177 -12.811005 28.614182 -28.614166 28.614182l0 0c-15.803162 0 -28.614166 -12.811005 -28.614166 -28.614182z" fill-rule="evenodd"/><path fill="#000000" fill-opacity="0.0" d="m315.2731 144.58229l87.433075 0l0 38.771652l-87.433075 0z" fill-rule="evenodd"/><path fill="#000000" d="m327.91373 168.94229l2.109375 -10.15625l-3.75 0l0.265625 -1.296875l9.015625 0l-0.265625 1.296875l-3.734375 0l-2.109375 10.15625l-1.53125 0zm5.4453125 -3.15625q0 -2.421875 1.4375 -4.015625q1.171875 -1.3125 3.09375 -1.3125q1.5 0 2.40625 0.9375q0.921875 0.9375 0.921875 2.53125q0 1.421875 -0.578125 2.65625q-0.578125 1.234375 -1.640625 1.890625q-1.0625 0.65625 -2.25 0.65625q-0.96875 0 -1.765625 -0.40625q-0.78125 -0.421875 -1.203125 -1.171875q-0.421875 -0.765625 -0.421875 -1.765625zm1.421875 -0.140625q0 1.171875 0.5625 1.78125q0.5625 0.609375 1.421875 0.609375q0.453125 0 0.890625 -0.1875q0.453125 -0.1875 0.828125 -0.5625q0.390625 -0.375 0.65625 -0.84375q0.28125 -0.484375 0.4375 -1.046875q0.25 -0.765625 0.25 -1.484375q0 -1.125 -0.578125 -1.734375q-0.5625 -0.625 -1.421875 -0.625q-0.65625 0 -1.203125 0.3125q-0.546875 0.3125 -1.0 0.921875q-0.4375 0.609375 -0.640625 1.421875q-0.203125 0.8125 -0.203125 1.4375zm7.2421875 3.296875l2.40625 -11.453125l1.40625 0l-1.484375 7.09375l4.125 -3.9375l1.859375 0l-3.53125 3.09375l2.140625 5.203125l-1.546875 0l-1.65625 -4.265625l-1.71875 1.484375l-0.578125 2.78125l-1.421875 0zm14.078125 -2.828125l1.375 0.140625q-0.296875 1.03125 -1.359375 1.953125q-1.0625 0.921875 -2.546875 0.921875q-0.921875 0 -1.6875 -0.421875q-0.765625 -0.4375 -1.171875 -1.25q-0.40625 -0.8125 -0.40625 -1.84375q0 -1.359375 0.625 -2.640625q0.640625 -1.28125 1.640625 -1.890625q1.0 -0.625 2.15625 -0.625q1.484375 0 2.375 0.921875q0.890625 0.921875 0.890625 2.515625q0 0.609375 -0.109375 1.25l-6.109375 0q-0.03125 0.234375 -0.03125 0.4375q0 1.15625 0.53125 1.78125q0.53125 0.609375 1.3125 0.609375q0.71875 0 1.421875 -0.46875q0.703125 -0.484375 1.09375 -1.390625zm-4.109375 -2.046875l4.65625 0q0.015625 -0.21875 0.015625 -0.3125q0 -1.0625 -0.53125 -1.625q-0.53125 -0.578125 -1.375 -0.578125q-0.90625 0 -1.65625 0.625q-0.734375 0.625 -1.109375 1.890625zm6.9140625 4.875l1.734375 -8.296875l1.28125 0l-0.296875 1.4375q0.828125 -0.84375 1.546875 -1.234375q0.734375 -0.390625 1.5 -0.390625q1.0 0 1.578125 0.546875q0.578125 0.546875 0.578125 1.453125q0 0.46875 -0.203125 1.453125l-1.0625 5.03125l-1.40625 0l1.09375 -5.265625q0.171875 -0.765625 0.171875 -1.125q0 -0.421875 -0.296875 -0.671875q-0.28125 -0.265625 -0.8125 -0.265625q-1.09375 0 -1.9375 0.78125q-0.84375 0.78125 -1.25 2.6875l-0.796875 3.859375l-1.421875 0zm9.2421875 -3.0l1.375 -0.171875q0.15625 1.203125 0.6875 1.71875q0.546875 0.515625 1.40625 0.515625q1.046875 0 1.8125 -0.75q0.765625 -0.75 0.765625 -1.71875q0 -0.84375 -0.578125 -1.390625q-0.5625 -0.546875 -1.53125 -0.546875q-0.109375 0 -0.453125 0.03125l0.25 -1.1875q0.203125 0.03125 0.390625 0.03125q1.203125 0 1.859375 -0.578125q0.65625 -0.59375 0.65625 -1.453125q0 -0.796875 -0.546875 -1.328125q-0.53125 -0.546875 -1.296875 -0.546875q-0.765625 0 -1.375 0.5625q-0.59375 0.546875 -0.765625 1.546875l-1.390625 -0.28125q0.34375 -1.40625 1.3125 -2.171875q0.984375 -0.78125 2.3125 -0.78125q1.40625 0 2.28125 0.859375q0.875 0.84375 0.875 2.078125q0 0.90625 -0.484375 1.59375q-0.46875 0.671875 -1.40625 1.109375q0.671875 0.40625 1.0 0.96875q0.328125 0.5625 0.328125 1.28125q0 1.546875 -1.15625 2.6875q-1.140625 1.125 -2.75 1.125q-1.546875 0 -2.515625 -0.875q-0.953125 -0.875 -1.0625 -2.328125z" fill-rule="nonzero"/><path fill="#000000" fill-opacity="0.0" d="m36.967327 135.72552c0 -28.018372 77.81889 -56.044617 155.63779 -56.036743c77.81889 0.007873535 155.6378 28.049866 155.6378 56.09973" fill-rule="evenodd"/><path stroke="#000000" stroke-width="1.0" stroke-linejoin="round" stroke-linecap="butt" d="m36.967327 135.72552c0 -28.018372 77.81889 -56.044617 155.6378 -56.036743c38.90944 0.0039367676 77.81891 7.016403 107.000946 17.534119c14.591064 5.2588577 26.750275 11.394028 35.26169 17.967606c4.2557373 3.2867813 7.599518 6.683174 9.879364 10.134422c1.1399231 1.7256165 2.013855 3.4649582 2.6028442 5.211174c0.14724731 0.43655396 0.27667236 0.87353516 0.38796997 1.310852c0.027832031 0.109313965 0.054534912 0.21865845 0.080078125 0.32803345l0.0463562 0.20741272" fill-rule="evenodd"/><path fill="#000000" stroke="#000000" stroke-width="1.0" stroke-linecap="butt" d="m347.86435 132.3824l-1.2419128 -0.9934845l1.4589844 2.94664l0.7764282 -3.1950684z" fill-rule="evenodd"/><path fill="#000000" fill-opacity="0.0" d="m158.31003 68.233215l87.433075 0l0 38.771652l-87.433075 0z" fill-rule="evenodd"/><path fill="#000000" d="m168.24753 92.593216q0.21875 -1.03125 0.609375 -1.71875q0.390625 -0.6875 1.03125 -1.3125q0.640625 -0.625 2.46875 -2.078125q1.109375 -0.890625 1.515625 -1.3125q0.578125 -0.609375 0.84375 -1.1875q0.1875 -0.40625 0.1875 -0.875q0 -0.78125 -0.5625 -1.328125q-0.5625 -0.5625 -1.375 -0.5625q-0.796875 0 -1.40625 0.5625q-0.59375 0.5625 -0.859375 1.796875l-1.375 -0.203125q0.203125 -1.53125 1.171875 -2.40625q0.984375 -0.875 2.453125 -0.875q0.96875 0 1.765625 0.40625q0.796875 0.40625 1.1875 1.140625q0.40625 0.734375 0.40625 1.515625q0 1.140625 -0.8125 2.1875q-0.5 0.65625 -2.9375 2.59375q-1.046875 0.828125 -1.5625 1.359375q-0.515625 0.53125 -0.765625 1.0l5.125 0l-0.28125 1.296875l-6.828125 0zm8.7109375 -3.4375l0.296875 -1.421875l4.3125 0l-0.296875 1.421875l-4.3125 0zm5.109375 3.4375l1.734375 -8.296875l1.28125 0l-0.296875 1.4375q0.828125 -0.84375 1.546875 -1.234375q0.734375 -0.390625 1.5 -0.390625q1.0 0 1.578125 0.546875q0.578125 0.546875 0.578125 1.453125q0 0.46875 -0.203125 1.453125l-1.0625 5.03125l-1.40625 0l1.09375 -5.265625q0.171875 -0.765625 0.171875 -1.125q0 -0.421875 -0.296875 -0.671875q-0.28125 -0.265625 -0.8125 -0.265625q-1.09375 0 -1.9375 0.78125q-0.84375 0.78125 -1.25 2.6875l-0.796875 3.859375l-1.421875 0zm14.9921875 -2.828125l1.375 0.140625q-0.296875 1.03125 -1.359375 1.953125q-1.0625 0.921875 -2.546875 0.921875q-0.921875 0 -1.6875 -0.421875q-0.765625 -0.4375 -1.171875 -1.25q-0.40625 -0.8125 -0.40625 -1.84375q0 -1.359375 0.625 -2.640625q0.640625 -1.28125 1.640625 -1.890625q1.0 -0.625 2.15625 -0.625q1.484375 0 2.375 0.921875q0.890625 0.921875 0.890625 2.515625q0 0.609375 -0.109375 1.25l-6.109375 0q-0.03125 0.234375 -0.03125 0.4375q0 1.15625 0.53125 1.78125q0.53125 0.609375 1.3125 0.609375q0.71875 0 1.421875 -0.46875q0.703125 -0.484375 1.09375 -1.390625zm-4.109375 -2.046875l4.65625 0q0.015625 -0.21875 0.015625 -0.3125q0 -1.0625 -0.53125 -1.625q-0.53125 -0.578125 -1.375 -0.578125q-0.90625 0 -1.65625 0.625q-0.734375 0.625 -1.109375 1.890625zm6.3515625 4.875l3.625 -4.21875l-2.078125 -4.078125l1.5625 0l0.703125 1.46875q0.390625 0.828125 0.703125 1.59375l2.390625 -3.0625l1.734375 0l-3.484375 4.1875l2.09375 4.109375l-1.5625 0l-0.828125 -1.6875q-0.265625 -0.546875 -0.609375 -1.34375l-2.46875 3.03125l-1.78125 0zm11.875 -1.15625l-0.234375 1.171875q-0.515625 0.125 -0.984375 0.125q-0.84375 0 -1.34375 -0.421875q-0.375 -0.3125 -0.375 -0.84375q0 -0.28125 0.203125 -1.265625l1.0 -4.8125l-1.109375 0l0.21875 -1.09375l1.125 0l0.421875 -2.046875l1.625 -0.96875l-0.640625 3.015625l1.390625 0l-0.234375 1.09375l-1.375 0l-0.96875 4.578125q-0.171875 0.875 -0.171875 1.046875q0 0.25 0.140625 0.390625q0.140625 0.125 0.46875 0.125q0.46875 0 0.84375 -0.09375z" fill-rule="nonzero"/><path fill="#000000" fill-opacity="0.0" d="m36.967327 135.72552c0 -44.37008 142.71654 -88.74803 285.43307 -88.74016c142.71655 0.007873535 285.4331 44.401573 285.4331 88.80315" fill-rule="evenodd"/><path stroke="#000000" stroke-width="1.0" stroke-linejoin="round" stroke-linecap="butt" d="m36.967327 135.72552c0 -44.37008 142.71654 -88.74803 285.4331 -88.74016c71.358246 0.0039367676 142.71649 11.104328 196.2352 27.753933c26.759338 8.324806 49.058838 18.036911 64.66846 28.442917c7.8048096 5.203003 13.937134 10.579475 18.118286 16.042755c2.0905762 2.731636 3.6932983 5.4849777 4.7734375 8.249176c0.5401001 1.3820953 0.9495239 2.766922 1.223877 4.1530914c0.034301758 0.17327881 0.06652832 0.34657288 0.09655762 0.5198822l0.03643799 0.22583008" fill-rule="evenodd"/><path fill="#000000" stroke="#000000" stroke-width="1.0" stroke-linecap="butt" d="m607.5527 132.37296l-1.2129517 -1.0286713l1.3739624 2.9872437l0.8676758 -3.1715088z" fill-rule="evenodd"/><path fill="#000000" fill-opacity="0.0" d="m278.3113 36.232086l99.40158 0l0 38.771652l-99.40158 0z" fill-rule="evenodd"/><path fill="#000000" d="m289.88943 63.967087q-1.21875 -2.6875 -1.21875 -5.53125q0 -1.890625 0.484375 -3.515625q0.5 -1.640625 1.515625 -3.234375q0.671875 -1.0625 2.15625 -2.75l1.09375 0q-0.90625 0.984375 -1.9375 2.765625q-1.015625 1.765625 -1.484375 3.484375q-0.453125 1.703125 -0.453125 3.421875q0 2.59375 0.90625 5.359375l-1.0625 0zm3.53125 -3.375l2.40625 -11.453125l1.484375 0l1.921875 4.296875q0.890625 1.96875 1.40625 3.3125q0.296875 0.78125 0.6875 2.109375q0.203125 -1.453125 0.53125 -2.984375l1.40625 -6.734375l1.484375 0l-2.390625 11.453125l-1.515625 0l-2.84375 -6.625q-0.75 -1.75 -1.171875 -3.078125q-0.125 1.109375 -0.453125 2.734375l-1.453125 6.96875l-1.5 0zm11.5234375 -3.4375l0.296875 -1.421875l4.3125 0l-0.296875 1.421875l-4.3125 0zm5.515625 3.4375q0.21875 -1.03125 0.609375 -1.71875q0.390625 -0.6875 1.03125 -1.3125q0.640625 -0.625 2.46875 -2.078125q1.109375 -0.890625 1.515625 -1.3125q0.578125 -0.609375 0.84375 -1.1875q0.1875 -0.40625 0.1875 -0.875q0 -0.78125 -0.5625 -1.328125q-0.5625 -0.5625 -1.375 -0.5625q-0.796875 0 -1.40625 0.5625q-0.59375 0.5625 -0.859375 1.796875l-1.375 -0.203125q0.203125 -1.53125 1.171875 -2.40625q0.984375 -0.875 2.453125 -0.875q0.96875 0 1.765625 0.40625q0.796875 0.40625 1.1875 1.140625q0.40625 0.734375 0.40625 1.515625q0 1.140625 -0.8125 2.1875q-0.5 0.65625 -2.9375 2.59375q-1.046875 0.828125 -1.5625 1.359375q-0.515625 0.53125 -0.765625 1.0l5.125 0l-0.28125 1.296875l-6.828125 0zm11.1328125 -11.65625q1.234375 2.6875 1.234375 5.515625q0 1.90625 -0.5 3.53125q-0.484375 1.625 -1.5 3.234375q-0.6875 1.0625 -2.15625 2.75l-1.109375 0q0.921875 -0.984375 1.9375 -2.765625q1.03125 -1.78125 1.484375 -3.484375q0.453125 -1.703125 0.453125 -3.4375q0 -2.578125 -0.890625 -5.34375l1.046875 0zm2.90625 8.21875l0.296875 -1.421875l4.3125 0l-0.296875 1.421875l-4.3125 0zm5.109375 3.4375l1.734375 -8.296875l1.28125 0l-0.296875 1.4375q0.828125 -0.84375 1.546875 -1.234375q0.734375 -0.390625 1.5 -0.390625q1.0 0 1.578125 0.546875q0.578125 0.546875 0.578125 1.453125q0 0.46875 -0.203125 1.453125l-1.0625 5.03125l-1.40625 0l1.09375 -5.265625q0.171875 -0.765625 0.171875 -1.125q0 -0.421875 -0.296875 -0.671875q-0.28125 -0.265625 -0.8125 -0.265625q-1.09375 0 -1.9375 0.78125q-0.84375 0.78125 -1.25 2.6875l-0.796875 3.859375l-1.421875 0zm14.9921875 -2.828125l1.375 0.140625q-0.296875 1.03125 -1.359375 1.953125q-1.0625 0.921875 -2.546875 0.921875q-0.921875 0 -1.6875 -0.421875q-0.765625 -0.4375 -1.171875 -1.25q-0.40625 -0.8125 -0.40625 -1.84375q0 -1.359375 0.625 -2.640625q0.640625 -1.28125 1.640625 -1.890625q1.0 -0.625 2.15625 -0.625q1.484375 0 2.375 0.921875q0.890625 0.921875 0.890625 2.515625q0 0.609375 -0.109375 1.25l-6.109375 0q-0.03125 0.234375 -0.03125 0.4375q0 1.15625 0.53125 1.78125q0.53125 0.609375 1.3125 0.609375q0.71875 0 1.421875 -0.46875q0.703125 -0.484375 1.09375 -1.390625zm-4.109375 -2.046875l4.65625 0q0.015625 -0.21875 0.015625 -0.3125q0 -1.0625 -0.53125 -1.625q-0.53125 -0.578125 -1.375 -0.578125q-0.90625 0 -1.65625 0.625q-0.734375 0.625 -1.109375 1.890625zm6.3515625 4.875l3.625 -4.21875l-2.078125 -4.078125l1.5625 0l0.703125 1.46875q0.390625 0.828125 0.703125 1.59375l2.390625 -3.0625l1.734375 0l-3.484375 4.1875l2.09375 4.109375l-1.5625 0l-0.828125 -1.6875q-0.265625 -0.546875 -0.609375 -1.34375l-2.46875 3.03125l-1.78125 0zm11.875 -1.15625l-0.234375 1.171875q-0.515625 0.125 -0.984375 0.125q-0.84375 0 -1.34375 -0.421875q-0.375 -0.3125 -0.375 -0.84375q0 -0.28125 0.203125 -1.265625l1.0 -4.8125l-1.109375 0l0.21875 -1.09375l1.125 0l0.421875 -2.046875l1.625 -0.96875l-0.640625 3.015625l1.390625 0l-0.234375 1.09375l-1.375 0l-0.96875 4.578125q-0.171875 0.875 -0.171875 1.046875q0 0.25 0.140625 0.390625q0.140625 0.125 0.46875 0.125q0.46875 0 0.84375 -0.09375z" fill-rule="nonzero"/><path fill="#000000" fill-opacity="0.0" d="m36.967327 135.72552c0 -62.92388 178.39369 -125.855644 356.7874 -125.84777c178.3937 0.007873535 356.78738 62.955383 356.78738 125.91076" fill-rule="evenodd"/><path stroke="#000000" stroke-width="1.0" stroke-linejoin="round" stroke-linecap="butt" d="m36.967327 135.72552c0 -62.92388 178.3937 -125.855644 356.7874 -125.84777c89.19684 0.0039367676 178.3937 15.742781 245.29135 39.350067c33.448853 11.803638 61.322876 25.57439 80.834656 40.328945c9.75592 7.3772736 17.421265 15.000504 22.647644 22.746758c2.6131592 3.8731384 4.616638 7.7770233 5.966797 11.69632c0.6749878 1.9596329 1.1868286 3.9231262 1.5297852 5.88855c0.085754395 0.49134827 0.1609497 0.98283386 0.2255249 1.4743958c0.032226562 0.24578857 0.061950684 0.4915924 0.08880615 0.7374115l0.027770996 0.2657013" fill-rule="evenodd"/><path fill="#000000" stroke="#000000" stroke-width="1.0" stroke-linecap="butt" d="m750.367 132.3659l-1.180542 -1.0656433l1.2810059 3.0282593l0.96520996 -3.1431885z" fill-rule="evenodd"/><path fill="#000000" fill-opacity="0.0" d="m348.42453 -2.5100522l99.40158 0l0 38.771652l-99.40158 0z" fill-rule="evenodd"/><path fill="#000000" d="m360.00266 25.224949q-1.21875 -2.6875 -1.21875 -5.53125q0 -1.890625 0.484375 -3.515625q0.5 -1.640626 1.515625 -3.234376q0.671875 -1.0625 2.15625 -2.75l1.09375 0q-0.90625 0.984375 -1.9375 2.765625q-1.015625 1.765625 -1.484375 3.484376q-0.453125 1.703125 -0.453125 3.421875q0 2.59375 0.90625 5.359375l-1.0625 0zm3.53125 -3.375l2.40625 -11.453126l1.484375 0l1.921875 4.296875q0.890625 1.968751 1.40625 3.312501q0.296875 0.78125 0.6875 2.109375q0.203125 -1.453125 0.53125 -2.984375l1.40625 -6.734376l1.484375 0l-2.390625 11.453126l-1.515625 0l-2.84375 -6.625001q-0.75 -1.75 -1.171875 -3.078125q-0.125 1.109375 -0.453125 2.734375l-1.453125 6.968751l-1.5 0zm11.5234375 -3.4375l0.296875 -1.421875l4.3125 0l-0.296875 1.421875l-4.3125 0zm8.4375 3.4375l1.8125 -8.656251q-1.171875 0.921875 -3.296875 1.484375l0.265625 -1.28125q1.046875 -0.421875 2.078125 -1.09375q1.03125 -0.6875 1.546875 -1.203125q0.3125 -0.3125 0.59375 -0.75l0.8125 0l-2.390625 11.500001l-1.421875 0zm8.2109375 -11.656251q1.234375 2.6875 1.234375 5.515625q0 1.906251 -0.5 3.531251q-0.484375 1.625 -1.5 3.234375q-0.6875 1.0625 -2.15625 2.75l-1.109375 0q0.921875 -0.984375 1.9375 -2.765625q1.03125 -1.78125 1.484375 -3.484375q0.453125 -1.703125 0.453125 -3.437501q0 -2.578125 -0.890625 -5.34375l1.046875 0zm2.90625 8.218751l0.296875 -1.421875l4.3125 0l-0.296875 1.421875l-4.3125 0zm5.109375 3.4375l1.734375 -8.296876l1.28125 0l-0.296875 1.4375q0.828125 -0.84375 1.546875 -1.234375q0.734375 -0.390625 1.5 -0.390625q1.0 0 1.578125 0.546875q0.578125 0.546875 0.578125 1.453125q0 0.46875 -0.203125 1.453126l-1.0625 5.03125l-1.40625 0l1.09375 -5.265625q0.171875 -0.76562595 0.171875 -1.125001q0 -0.421875 -0.296875 -0.671875q-0.28125 -0.265625 -0.8125 -0.265625q-1.09375 0 -1.9375 0.78125q-0.84375 0.78125095 -1.25 2.687501l-0.796875 3.859375l-1.421875 0zm14.9921875 -2.828125l1.375 0.140625q-0.296875 1.03125 -1.359375 1.953125q-1.0625 0.921875 -2.546875 0.921875q-0.921875 0 -1.6875 -0.421875q-0.765625 -0.4375 -1.171875 -1.25q-0.40625 -0.8125 -0.40625 -1.84375q0 -1.359375 0.625 -2.640626q0.640625 -1.28125 1.640625 -1.890625q1.0 -0.625 2.15625 -0.625q1.484375 0 2.375 0.921875q0.890625 0.921875 0.890625 2.515626q0 0.609375 -0.109375 1.25l-6.109375 0q-0.03125 0.234375 -0.03125 0.4375q0 1.15625 0.53125 1.78125q0.53125 0.609375 1.3125 0.609375q0.71875 0 1.421875 -0.46875q0.703125 -0.484375 1.09375 -1.390625zm-4.109375 -2.046875l4.65625 0q0.015625 -0.21875 0.015625 -0.3125q0 -1.062501 -0.53125 -1.625001q-0.53125 -0.578125 -1.375 -0.578125q-0.90625 0 -1.65625 0.625q-0.734375 0.625 -1.109375 1.890626zm6.3515625 4.875l3.625 -4.21875l-2.078125 -4.078126l1.5625 0l0.703125 1.46875q0.390625 0.828125 0.703125 1.593751l2.390625 -3.062501l1.734375 0l-3.484375 4.187501l2.09375 4.109375l-1.5625 0l-0.828125 -1.6875q-0.265625 -0.546875 -0.609375 -1.34375l-2.46875 3.03125l-1.78125 0zm11.875 -1.15625l-0.234375 1.171875q-0.515625 0.125 -0.984375 0.125q-0.84375 0 -1.34375 -0.421875q-0.375 -0.3125 -0.375 -0.84375q0 -0.28125 0.203125 -1.265625l1.0 -4.812501l-1.109375 0l0.21875 -1.09375l1.125 0l0.421875 -2.046875l1.625 -0.96875l-0.640625 3.015625l1.390625 0l-0.234375 1.09375l-1.375 0l-0.96875 4.578126q-0.171875 0.875 -0.171875 1.046875q0 0.25 0.140625 0.390625q0.140625 0.125 0.46875 0.125q0.46875 0 0.84375 -0.09375z" fill-rule="nonzero"/></g></svg>